<?xml version="1.0" standalone="no"?>
<!DOCTYPE svg PUBLIC "-//W3C//DTD SVG 20010904//EN"
 "http://www.w3.org/TR/2001/REC-SVG-20010904/DTD/svg10.dtd">
<svg version="1.0" xmlns="http://www.w3.org/2000/svg"
 width="3326.000000pt" height="3326.000000pt" viewBox="0 0 3326.000000 3326.000000"
 preserveAspectRatio="xMidYMid meet">
<metadata>
Created by potrace 1.14, written by Peter Selinger 2001-2017
</metadata>
<g transform="translate(0.000000,3326.000000) scale(0.100000,-0.100000)"
fill="#000000" stroke="none">
<path d="M0 16630 l0 -5000 7363 0 7363 0 99 143 c55 78 102 144 105 147 3 3
19 25 35 50 17 25 66 96 110 158 44 63 87 124 95 135 8 12 89 128 179 257 90
129 186 267 212 305 27 39 55 79 63 90 8 11 114 162 235 335 121 173 367 526
548 784 180 258 355 508 388 555 33 48 93 134 133 192 41 57 147 210 238 339
90 129 169 243 176 252 23 32 251 358 567 811 282 403 312 451 302 470 -9 19
-112 168 -164 238 -61 83 -309 437 -314 449 -4 8 -9 17 -13 20 -3 3 -138 194
-300 425 -161 231 -309 443 -329 470 -19 28 -63 91 -97 140 -35 50 -66 95 -71
100 -5 6 -55 78 -113 160 -138 200 -139 200 -409 585 -129 184 -247 353 -262
375 -46 66 -285 408 -309 440 -52 72 -209 297 -346 495 -25 36 -50 72 -57 80
-7 9 -32 45 -57 80 -24 36 -48 67 -52 68 -4 2 -8 9 -8 15 0 7 -10 24 -23 39
-12 15 -143 201 -291 413 l-270 385 -7363 0 -7363 0 0 -5000z m6065 2306 c181
-21 181 -21 330 -53 393 -83 780 -278 1086 -548 l36 -32 -26 -33 c-14 -18 -60
-74 -101 -124 -68 -81 -233 -285 -253 -311 -4 -5 -17 -21 -30 -36 -12 -14 -53
-65 -92 -113 -38 -49 -88 -109 -110 -135 -22 -25 -52 -62 -67 -80 l-26 -35
-69 56 c-257 208 -506 317 -808 354 -63 8 -276 8 -301 1 -10 -3 -39 -9 -64
-12 -25 -4 -81 -18 -125 -32 -278 -88 -512 -294 -649 -569 -46 -91 -100 -241
-110 -304 -3 -19 -8 -44 -10 -56 -26 -124 -26 -383 -1 -502 60 -285 157 -474
332 -648 141 -139 309 -233 506 -284 129 -33 213 -43 347 -41 101 2 123 4 210
16 30 5 62 9 70 10 82 12 231 66 325 120 l60 34 1 270 0 271 -428 0 -428 0 0
449 0 448 983 1 c540 0 989 -2 998 -4 15 -4 17 -87 17 -993 0 -544 -3 -993 -7
-998 -10 -15 -140 -116 -226 -175 -144 -99 -340 -207 -495 -273 -161 -69 -470
-164 -585 -181 -16 -2 -41 -6 -55 -9 -73 -11 -183 -26 -245 -33 -143 -14 -557
-6 -650 13 -11 3 -36 7 -55 10 -19 2 -46 7 -60 10 -14 2 -50 10 -80 16 -76 15
-148 35 -270 75 -469 156 -875 462 -1136 859 -33 50 -65 99 -72 110 -25 40
-142 285 -142 298 0 7 -4 17 -9 23 -19 21 -96 283 -116 399 -12 69 -15 84 -20
113 -19 104 -27 463 -13 617 31 332 172 738 356 1020 205 316 509 593 837 763
80 41 214 102 226 102 5 0 17 4 27 9 42 21 74 32 172 60 93 27 160 43 224 57
11 2 42 6 69 9 28 3 53 8 56 9 3 2 44 7 91 11 47 4 87 9 89 11 6 5 428 -3 486
-10z m5465 4 c36 -4 91 -11 122 -14 148 -15 386 -77 562 -147 173 -69 460
-231 541 -306 11 -10 38 -31 60 -47 65 -48 286 -275 346 -356 67 -90 129 -178
129 -184 0 -2 17 -33 39 -68 100 -165 200 -417 247 -620 11 -50 15 -65 19 -88
3 -14 7 -34 9 -45 2 -11 7 -45 11 -75 5 -30 10 -64 11 -75 9 -54 11 -419 4
-488 -10 -92 -18 -153 -25 -187 -3 -14 -8 -38 -11 -55 -55 -312 -215 -665
-427 -945 -74 -97 -264 -295 -350 -366 -289 -234 -652 -408 -1002 -480 -299
-61 -703 -67 -975 -13 -143 28 -348 85 -425 119 -11 5 -54 23 -95 41 -514 219
-942 649 -1165 1169 -205 480 -245 1028 -110 1544 142 544 510 1040 997 1342
242 150 585 279 848 319 203 31 494 42 640 25z"/>
<path d="M11298 17846 c-1 -2 -42 -6 -90 -10 -370 -26 -684 -238 -865 -581
-27 -51 -71 -157 -79 -190 -2 -5 -10 -35 -18 -65 -37 -134 -44 -207 -41 -380
1 -85 6 -168 9 -185 4 -16 9 -43 12 -60 14 -74 60 -208 100 -293 156 -325 434
-544 784 -617 68 -15 324 -14 400 1 460 87 791 442 884 947 17 97 18 346 1
442 -71 401 -282 702 -610 872 -61 31 -185 76 -240 87 -16 4 -41 9 -55 11 -14
3 -56 8 -95 11 -38 3 -75 7 -82 9 -6 2 -13 2 -15 1z"/>
<path d="M18589 21603 c-1 -35 -1 -9931 0 -9955 1 -17 357 -18 7334 -18 l7332
0 0 5000 0 5000 -7332 0 -7333 0 -1 -27z m5617 -4963 c0 -1180 -1 -2150 -3
-2155 -2 -7 -234 -11 -713 -11 l-710 0 0 2152 c0 1183 3 2154 7 2158 3 3 324
5 712 3 l706 -2 1 -2145z m5679 1445 c1 -385 0 -705 -2 -710 -2 -7 -238 -10
-711 -10 l-707 0 -5 -1445 -5 -1445 -710 0 -709 0 -1 1445 0 1445 -705 1
c-388 1 -708 2 -711 3 -7 1 -9 1402 -2 1413 2 4 963 7 2136 5 l2132 -2 0 -700z"/>
</g>
</svg>
